<svg width="32" height="22" viewBox="0 0 32 22" fill="none" xmlns="http://www.w3.org/2000/svg">
<path d="M24.7408 9.5165C24.7408 3.76799 18.6812 0 12.6315 0C6.55765 0 0.522217 3.7857 0.522217 9.5165C0.522217 11.6846 1.47178 13.8047 3.19605 15.4865C3.26202 15.5508 3.28728 15.6485 3.26195 15.7414C2.72038 17.7254 1.43766 19.5177 0.911324 20.1961C0.747603 20.4072 0.720674 20.6863 0.841114 20.9247C0.958848 21.1578 1.19161 21.3005 1.45167 21.3005C1.45757 21.3005 1.46342 21.3004 1.46932 21.3003C4.0449 21.2361 7.03031 20.5091 8.8757 18.6949C8.94019 18.6314 9.03272 18.6063 9.12334 18.6279C10.2572 18.8968 11.4375 19.0331 12.6315 19.0331C18.7036 19.033 24.7408 15.2488 24.7408 9.5165ZM9.33612 17.7305C8.93521 17.6353 8.52127 17.75 8.22918 18.0371C6.38373 19.8516 3.37028 20.2641 1.94376 20.3557C2.59539 19.4562 3.65487 17.8042 4.15163 15.9841C4.26519 15.5682 4.14573 15.1245 3.83993 14.8262C2.2728 13.2978 1.44442 11.4617 1.44442 9.5165C1.44442 4.77762 6.46291 0.922201 12.6315 0.922201C18.8001 0.922201 23.8186 4.77756 23.8186 9.5165C23.8186 14.2554 18.8001 18.1108 12.6315 18.1108C11.5091 18.1108 10.4004 17.9828 9.33612 17.7305Z" fill="#674D40"/>
<path d="M27.7066 17.178C30.395 15.8194 32 13.5037 32 10.9836C32 7.42204 28.7805 4.37878 24.3447 3.74731C24.0929 3.71153 23.8591 3.88669 23.8232 4.13882C23.7873 4.39095 23.9626 4.62439 24.2147 4.66029C28.1915 5.2264 31.0778 7.88572 31.0778 10.9836C31.0778 13.1485 29.6621 15.1565 27.2906 16.355C26.8295 16.588 26.5824 17.1032 26.6898 17.608C26.9146 18.6645 27.3933 19.6429 27.7761 20.306C25.0531 19.8528 24.021 18.5462 23.6947 17.9807C23.4932 17.6316 23.1165 17.4152 22.7099 17.4152C22.7087 17.4152 22.7075 17.4152 22.7063 17.4152L22.6725 17.4153C22.1612 17.4153 21.6492 17.3798 21.1509 17.3098C20.8994 17.2744 20.6656 17.4501 20.6301 17.7022C20.5947 17.9544 20.7704 18.1876 21.0226 18.223C21.5633 18.2989 22.1184 18.3374 22.6725 18.3374L22.71 18.3373H22.7107C22.7879 18.3373 22.8587 18.3772 22.8959 18.4416C24.1447 20.6059 27.0155 21.1585 28.1918 21.2956C28.4516 21.3258 28.6992 21.2071 28.8378 20.9851C28.9761 20.7636 28.9743 20.4894 28.8332 20.2695C28.4789 19.7176 27.8466 18.6132 27.5918 17.4161C27.5715 17.3204 27.6187 17.2225 27.7066 17.178Z" fill="#674D40"/>
<path d="M5.45651 7.86719C4.57532 7.86719 3.85846 8.58411 3.85846 9.46524C3.85846 10.3464 4.57532 11.0633 5.45651 11.0633C6.33771 11.0633 7.05456 10.3464 7.05456 9.46524C7.05456 8.58411 6.33771 7.86719 5.45651 7.86719ZM5.45651 10.1412C5.08382 10.1412 4.78066 9.83793 4.78066 9.4653C4.78066 9.09267 5.08388 8.78945 5.45651 8.78945C5.82914 8.78945 6.13236 9.09267 6.13236 9.4653C6.13236 9.83793 5.82914 10.1412 5.45651 10.1412Z" fill="#674D40"/>
<path d="M10.0154 7.86719C9.13422 7.86719 8.41736 8.58411 8.41736 9.46524C8.41736 10.3464 9.13422 11.0633 10.0154 11.0633C10.8966 11.0633 11.6135 10.3464 11.6135 9.46524C11.6135 8.58411 10.8966 7.86719 10.0154 7.86719ZM10.0154 10.1412C9.64272 10.1412 9.33956 9.83793 9.33956 9.4653C9.33956 9.09267 9.64278 8.78945 10.0154 8.78945C10.388 8.78945 10.6913 9.09267 10.6913 9.4653C10.6913 9.83793 10.3881 10.1412 10.0154 10.1412Z" fill="#674D40"/>
<path d="M14.5743 7.86719C13.6931 7.86719 12.9763 8.58411 12.9763 9.46524C12.9763 10.3464 13.6931 11.0633 14.5743 11.0633C15.4555 11.0633 16.1724 10.3464 16.1724 9.46524C16.1724 8.58411 15.4555 7.86719 14.5743 7.86719ZM14.5743 10.1412C14.2016 10.1412 13.8985 9.83793 13.8985 9.4653C13.8985 9.09267 14.2017 8.78945 14.5743 8.78945C14.9469 8.78945 15.2502 9.09267 15.2502 9.4653C15.2502 9.83793 14.947 10.1412 14.5743 10.1412Z" fill="#674D40"/>
<path d="M19.1333 7.86719C18.2521 7.86719 17.5352 8.58411 17.5352 9.46524C17.5352 10.3464 18.2521 11.0633 19.1333 11.0633C20.0145 11.0633 20.7313 10.3464 20.7313 9.46524C20.7313 8.58411 20.0145 7.86719 19.1333 7.86719ZM19.1333 10.1412C18.7606 10.1412 18.4574 9.83793 18.4574 9.4653C18.4574 9.09267 18.7606 8.78945 19.1333 8.78945C19.5059 8.78945 19.8091 9.09267 19.8091 9.4653C19.8091 9.83793 19.5059 10.1412 19.1333 10.1412Z" fill="#674D40"/>
</svg>
