<svg width="25" height="23" viewBox="0 0 25 23" fill="none" xmlns="http://www.w3.org/2000/svg">
<path d="M18.0016 6.11434C17.9083 6.11434 17.8188 6.07728 17.7529 6.01132C17.6869 5.94535 17.6499 5.85589 17.6499 5.7626C17.6226 4.41501 17.0681 3.13182 16.1054 2.18843C15.1427 1.24504 13.8486 0.716637 12.5007 0.716637C11.1528 0.716637 9.85869 1.24504 8.89601 2.18843C7.93332 3.13182 7.37884 4.41501 7.35156 5.7626C7.35156 5.85589 7.3145 5.94535 7.24853 6.01132C7.18257 6.07728 7.0931 6.11434 6.99981 6.11434C6.90653 6.11434 6.81706 6.07728 6.75109 6.01132C6.68513 5.94535 6.64807 5.85589 6.64807 5.7626C6.6719 4.2261 7.29899 2.76059 8.39398 1.68244C9.48897 0.604299 10.964 0 12.5007 0C14.0374 0 15.5124 0.604299 16.6074 1.68244C17.7024 2.76059 18.3295 4.2261 18.3533 5.7626C18.3533 5.85589 18.3163 5.94535 18.2503 6.01132C18.1844 6.07728 18.0949 6.11434 18.0016 6.11434Z" fill="#674D40"/>
<path d="M19.0284 14.0742C18.9351 14.0747 18.8454 14.0382 18.779 13.9727C18.7127 13.9071 18.6751 13.8178 18.6745 13.7246C18.674 13.6313 18.7105 13.5416 18.776 13.4752C18.8416 13.4089 18.9309 13.3713 19.0241 13.3707C20.3637 13.3628 21.6467 12.8296 22.5973 11.8857C23.5479 10.9418 24.0901 9.66267 24.1075 8.32319C24.0942 6.97056 23.545 5.67842 22.5803 4.7302C21.6156 3.78198 20.3142 3.2551 18.9615 3.26513C18.4422 3.26427 17.9257 3.34086 17.429 3.49235C17.3403 3.51813 17.245 3.50796 17.1637 3.46404C17.0824 3.42013 17.0216 3.34599 16.9946 3.25765C16.9675 3.16931 16.9763 3.07386 17.019 2.99194C17.0617 2.91001 17.1349 2.84819 17.2229 2.81982C17.7864 2.64788 18.3724 2.56086 18.9615 2.56164C20.5007 2.5518 21.9809 3.15286 23.0775 4.23297C24.1741 5.31308 24.7975 6.78404 24.811 8.32319C24.793 9.84759 24.1776 11.3041 23.097 12.3795C22.0164 13.4549 20.5571 14.0634 19.0326 14.0742H19.0284Z" fill="#674D40"/>
<path d="M5.97167 14.0742H5.96745C4.44298 14.0634 2.9836 13.4549 1.90304 12.3795C0.822489 11.3041 0.207047 9.84759 0.189026 8.32319C0.2025 6.78404 0.825909 5.31308 1.9225 4.23297C3.0191 3.15286 4.49933 2.5518 6.0385 2.56164C6.62766 2.56086 7.21365 2.64788 7.77716 2.81982C7.82194 2.83283 7.86368 2.85461 7.89996 2.88389C7.93624 2.91318 7.96634 2.94939 7.9885 2.99041C8.01066 3.03143 8.02445 3.07645 8.02906 3.12284C8.03366 3.16924 8.029 3.21609 8.01534 3.26067C8.00167 3.30525 7.97929 3.34667 7.94947 3.38251C7.91966 3.41836 7.88301 3.44793 7.84167 3.46948C7.80033 3.49104 7.75511 3.50417 7.70865 3.50809C7.66219 3.51202 7.61542 3.50667 7.57104 3.49235C7.07433 3.34086 6.5578 3.26427 6.0385 3.26513C4.68585 3.2551 3.38443 3.78198 2.41973 4.7302C1.45502 5.67842 0.905793 6.97056 0.892511 8.32319C0.909901 9.66267 1.45218 10.9418 2.40276 11.8857C3.35334 12.8296 4.63633 13.3628 5.97589 13.3707C6.02208 13.371 6.06777 13.3803 6.11034 13.3983C6.15291 13.4162 6.19153 13.4424 6.22399 13.4752C6.25646 13.5081 6.28214 13.547 6.29956 13.5898C6.31698 13.6326 6.3258 13.6784 6.32552 13.7246C6.32525 13.7707 6.31587 13.8164 6.29794 13.859C6.28001 13.9016 6.25387 13.9402 6.22101 13.9727C6.18815 14.0051 6.14922 14.0308 6.10644 14.0482C6.06366 14.0656 6.01786 14.0745 5.97167 14.0742Z" fill="#674D40"/>
<path d="M19.0283 22.8248H5.97162C5.87833 22.8248 5.78886 22.7877 5.7229 22.7218C5.65693 22.6558 5.61987 22.5663 5.61987 22.473V13.7231C5.61987 13.6298 5.65693 13.5403 5.7229 13.4744C5.78886 13.4084 5.87833 13.3713 5.97162 13.3713C6.0649 13.3713 6.15437 13.4084 6.22033 13.4744C6.2863 13.5403 6.32336 13.6298 6.32336 13.7231V22.1213H18.6765V13.7231C18.6765 13.6298 18.7136 13.5403 18.7796 13.4744C18.8455 13.4084 18.935 13.3713 19.0283 13.3713C19.1216 13.3713 19.211 13.4084 19.277 13.4744C19.343 13.5403 19.38 13.6298 19.38 13.7231V22.473C19.38 22.5663 19.343 22.6558 19.277 22.7218C19.211 22.7877 19.1216 22.8248 19.0283 22.8248Z" fill="#674D40"/>
<path d="M21.4765 19.4161H8.4198C8.32651 19.4161 8.23704 19.3791 8.17108 19.3131C8.10511 19.2472 8.06805 19.1577 8.06805 19.0644C8.06805 18.9711 8.10511 18.8816 8.17108 18.8157C8.23704 18.7497 8.32651 18.7126 8.4198 18.7126H21.4765C21.5698 18.7126 21.6592 18.7497 21.7252 18.8157C21.7912 18.8816 21.8282 18.9711 21.8282 19.0644C21.8282 19.1577 21.7912 19.2472 21.7252 19.3131C21.6592 19.3791 21.5698 19.4161 21.4765 19.4161Z" fill="#674D40"/>
</svg>
