<svg width="25" height="25" viewBox="0 0 25 25" fill="none" xmlns="http://www.w3.org/2000/svg">
<path d="M12.5 0C5.6075 0 0 5.6075 0 12.5C0 19.3925 5.6075 25 12.5 25C19.3925 25 25 19.3925 25 12.5C25 5.6075 19.3925 0 12.5 0ZM12.5 24.1667C6.06708 24.1667 0.833333 18.9329 0.833333 12.5C0.833333 6.06708 6.06708 0.833333 12.5 0.833333C18.9329 0.833333 24.1667 6.06708 24.1667 12.5C24.1667 18.9329 18.9329 24.1667 12.5 24.1667Z" fill="#674D40"/>
<path d="M12.9167 10.8422V6.61637C12.9167 6.38596 12.73 6.19971 12.5 6.19971C12.27 6.19971 12.0833 6.38596 12.0833 6.61637V10.8422C11.5004 10.9939 11.0442 11.4501 10.8925 12.033H7.91667C7.68667 12.033 7.5 12.2193 7.5 12.4497C7.5 12.6801 7.68667 12.8664 7.91667 12.8664H10.8925C11.0787 13.583 11.7258 14.1164 12.5 14.1164C13.4192 14.1164 14.1667 13.3689 14.1667 12.4497C14.1667 11.6751 13.6333 11.0285 12.9167 10.8422ZM12.5 13.283C12.0404 13.283 11.6667 12.9093 11.6667 12.4497C11.6667 11.9901 12.0404 11.6164 12.5 11.6164C12.9596 11.6164 13.3333 11.9901 13.3333 12.4497C13.3333 12.9093 12.9596 13.283 12.5 13.283Z" fill="#674D40"/>
<path d="M12.5 4.11621C12.73 4.11621 12.9166 3.92996 12.9166 3.69954V3.28288C12.9166 3.05246 12.73 2.86621 12.5 2.86621C12.27 2.86621 12.0833 3.05246 12.0833 3.28288V3.69954C12.0833 3.92996 12.27 4.11621 12.5 4.11621Z" fill="#674D40"/>
<path d="M12.5 20.783C12.27 20.783 12.0833 20.9692 12.0833 21.1996V21.6163C12.0833 21.8467 12.27 22.033 12.5 22.033C12.73 22.033 12.9166 21.8467 12.9166 21.6163V21.1996C12.9166 20.9692 12.73 20.783 12.5 20.783Z" fill="#674D40"/>
<path d="M21.6666 12.033H21.25C21.02 12.033 20.8333 12.2192 20.8333 12.4496C20.8333 12.68 21.02 12.8663 21.25 12.8663H21.6666C21.8966 12.8663 22.0833 12.68 22.0833 12.4496C22.0833 12.2192 21.8966 12.033 21.6666 12.033Z" fill="#674D40"/>
<path d="M3.75002 12.033H3.33335C3.10335 12.033 2.91669 12.2192 2.91669 12.4496C2.91669 12.68 3.10335 12.8663 3.33335 12.8663H3.75002C3.98002 12.8663 4.16669 12.68 4.16669 12.4496C4.16669 12.2192 3.98002 12.033 3.75002 12.033Z" fill="#674D40"/>
<path d="M18.6871 5.67306L18.3925 5.96764C18.2296 6.13056 18.2296 6.39389 18.3925 6.55681C18.4738 6.63806 18.5804 6.67889 18.6871 6.67889C18.7938 6.67889 18.9004 6.63806 18.9817 6.55681L19.2763 6.26222C19.4392 6.09931 19.4392 5.83597 19.2763 5.67306C19.1133 5.51014 18.85 5.51056 18.6871 5.67306Z" fill="#674D40"/>
<path d="M6.01833 18.3422L5.72375 18.6368C5.56083 18.7997 5.56083 19.0631 5.72375 19.226C5.805 19.3072 5.91167 19.3481 6.01833 19.3481C6.125 19.3481 6.23167 19.3072 6.31292 19.226L6.6075 18.9314C6.77042 18.7685 6.77042 18.5052 6.6075 18.3422C6.44458 18.1793 6.18083 18.1797 6.01833 18.3422Z" fill="#674D40"/>
<path d="M18.9817 18.3422C18.8188 18.1792 18.5554 18.1792 18.3925 18.3422C18.2296 18.5051 18.2296 18.7684 18.3925 18.9313L18.6871 19.2259C18.7683 19.3072 18.875 19.348 18.9817 19.348C19.0883 19.348 19.195 19.3072 19.2763 19.2259C19.4392 19.063 19.4392 18.7997 19.2763 18.6367L18.9817 18.3422Z" fill="#674D40"/>
<path d="M6.31292 5.67297C6.15 5.51005 5.88667 5.51005 5.72375 5.67297C5.56083 5.83589 5.56083 6.09922 5.72375 6.26214L6.01833 6.55672C6.09958 6.63797 6.20625 6.6788 6.31292 6.6788C6.41958 6.6788 6.52625 6.63797 6.6075 6.55672C6.77042 6.3938 6.77042 6.13047 6.6075 5.96755L6.31292 5.67297Z" fill="#674D40"/>
</svg>
