<!-- Generated by IcoMoon.io -->
<svg version="1.1" xmlns="http://www.w3.org/2000/svg" width="32" height="32" viewBox="0 0 32 32">
<title>close</title>
<path d="M30.354 32c0.909-0.001 1.645-0.737 1.645-1.646 0-0.455-0.184-0.866-0.483-1.164l-28.704-28.709c-0.298-0.298-0.71-0.482-1.164-0.482-0.909 0-1.647 0.737-1.647 1.647 0 0.455 0.184 0.866 0.482 1.164l28.708 28.708c0.322 0.32 0.743 0.484 1.164 0.484z"></path>
<path d="M1.644 32c0.421 0 0.843-0.16 1.164-0.484l28.709-28.706c0.298-0.298 0.482-0.71 0.482-1.164 0-0.909-0.737-1.647-1.647-1.647-0.455 0-0.866 0.184-1.164 0.482l-28.709 28.709c-0.297 0.298-0.481 0.709-0.481 1.163 0 0.909 0.736 1.646 1.645 1.646h0z"></path>
</svg>
