<!-- Generated by IcoMoon.io -->
<svg version="1.1" xmlns="http://www.w3.org/2000/svg" width="19" height="32" viewBox="0 0 19 32">
<title>facebook</title>
<path d="M16.65 0.007l-4.15-0.007c-4.662 0-7.675 3.091-7.675 7.875v3.631h-4.173c-0.36 0-0.652 0.292-0.652 0.652v0 5.261c0 0.36 0.293 0.653 0.652 0.653h4.173v13.275c0 0.36 0.291 0.652 0.652 0.652h5.443c0.001 0 0.001 0 0.002 0 0.36 0 0.652-0.292 0.652-0.652 0 0 0 0 0 0v0-13.277h4.877c0 0 0.001 0 0.002 0 0.36 0 0.652-0.292 0.652-0.652 0-0.001 0-0.001 0-0.002v0-5.258c-0.001-0.36-0.292-0.651-0.652-0.652h-4.879v-3.080c0-1.479 0.354-2.23 2.279-2.23h2.796c0 0 0 0 0 0 0.36 0 0.652-0.292 0.652-0.652 0-0.001 0-0.001 0-0.002v0-4.884c0 0 0 0 0 0 0-0.36-0.291-0.652-0.65-0.653h-0z"></path>
</svg>
