<svg aria-hidden="true" style="position: absolute; width: 0; height: 0; overflow: hidden;" version="1.1" xmlns="http://www.w3.org/2000/svg" xmlns:xlink="http://www.w3.org/1999/xlink">
<defs>
<symbol id="icon-close" viewBox="0 0 32 32">
<path d="M30.354 32c0.909-0.001 1.645-0.737 1.645-1.646 0-0.455-0.184-0.866-0.483-1.164l-28.704-28.709c-0.298-0.298-0.71-0.482-1.164-0.482-0.909 0-1.647 0.737-1.647 1.647 0 0.455 0.184 0.866 0.482 1.164l28.708 28.708c0.322 0.32 0.743 0.484 1.164 0.484z"></path>
<path d="M1.644 32c0.421 0 0.843-0.16 1.164-0.484l28.709-28.706c0.298-0.298 0.482-0.71 0.482-1.164 0-0.909-0.737-1.647-1.647-1.647-0.455 0-0.866 0.184-1.164 0.482l-28.709 28.709c-0.297 0.298-0.481 0.709-0.481 1.163 0 0.909 0.736 1.646 1.645 1.646h0z"></path>
</symbol>
<symbol id="icon-facebook" viewBox="0 0 19 32">
<path d="M16.65 0.007l-4.15-0.007c-4.662 0-7.675 3.091-7.675 7.875v3.631h-4.173c-0.36 0-0.652 0.292-0.652 0.652v0 5.261c0 0.36 0.293 0.653 0.652 0.653h4.173v13.275c0 0.36 0.291 0.652 0.652 0.652h5.443c0.001 0 0.001 0 0.002 0 0.36 0 0.652-0.292 0.652-0.652 0 0 0 0 0 0v0-13.277h4.877c0 0 0.001 0 0.002 0 0.36 0 0.652-0.292 0.652-0.652 0-0.001 0-0.001 0-0.002v0-5.258c-0.001-0.36-0.292-0.651-0.652-0.652h-4.879v-3.080c0-1.479 0.354-2.23 2.279-2.23h2.796c0 0 0 0 0 0 0.36 0 0.652-0.292 0.652-0.652 0-0.001 0-0.001 0-0.002v0-4.884c0 0 0 0 0 0 0-0.36-0.291-0.652-0.65-0.653h-0z"></path>
</symbol>
<symbol id="icon-instagram" viewBox="0 0 32 32">
<path d="M16.315 32h-0.318c-0.141 0.001-0.307 0.001-0.474 0.001-2.324 0-4.632-0.071-6.921-0.212l0.314 0.015c-2.067-0.126-3.953-0.84-5.455-2.065-1.448-1.182-2.439-2.781-2.942-4.749-0.438-1.716-0.46-3.399-0.483-5.027-0.017-1.167-0.032-2.552-0.035-3.96 0.003-1.415 0.020-2.799 0.035-3.966 0.024-1.629 0.045-3.311 0.483-5.027 0.504-1.971 1.492-3.567 2.942-4.749 1.502-1.224 3.389-1.939 5.457-2.065 1.977-0.125 4.287-0.196 6.614-0.196 0.166 0 0.331 0 0.497 0.001l-0.026-0c0.135-0.001 0.294-0.001 0.454-0.001 2.331 0 4.646 0.071 6.942 0.212l-0.315-0.015c2.067 0.126 3.953 0.84 5.455 2.065 1.448 1.182 2.439 2.779 2.942 4.749 0.438 1.716 0.46 3.399 0.483 5.027 0.017 1.167 0.034 2.552 0.035 3.96v0.007c-0.003 1.406-0.020 2.791-0.035 3.96-0.024 1.629-0.045 3.311-0.483 5.027-0.504 1.969-1.492 3.567-2.942 4.749-1.502 1.224-3.389 1.939-5.457 2.065-1.965 0.125-4.262 0.196-6.575 0.196-0.067 0-0.134-0-0.201-0h0.010zM15.997 29.499c0.141 0.001 0.308 0.001 0.475 0.001 2.273 0 4.529-0.069 6.768-0.206l-0.307 0.015c1.561-0.094 2.917-0.601 4.025-1.506 1.027-0.837 1.735-1.992 2.1-3.431 0.365-1.428 0.387-2.961 0.406-4.443 0.017-1.162 0.034-2.535 0.037-3.929-0.003-1.395-0.020-2.769-0.037-3.929-0.020-1.482-0.040-3.015-0.404-4.443-0.369-1.44-1.075-2.594-2.1-3.431-1.112-0.904-2.466-1.411-4.029-1.506-1.94-0.123-4.206-0.193-6.489-0.193-0.154 0-0.308 0-0.462 0.001l0.024-0c-0.135-0.001-0.294-0.001-0.453-0.001-2.28 0-4.544 0.070-6.789 0.208l0.308-0.015c-1.563 0.094-2.919 0.601-4.029 1.506-1.026 0.837-1.731 1.991-2.099 3.431-0.365 1.428-0.387 2.961-0.406 4.443-0.017 1.162-0.034 2.536-0.037 3.933 0.003 1.388 0.020 2.764 0.037 3.924 0.020 1.482 0.040 3.015 0.404 4.443 0.369 1.44 1.075 2.594 2.1 3.432 1.112 0.904 2.466 1.411 4.029 1.506 2.2 0.135 4.467 0.197 6.927 0.19zM15.938 23.813c-4.313-0.005-7.808-3.5-7.813-7.813v-0c0.005-4.313 3.5-7.808 7.813-7.813h0c4.313 0.005 7.808 3.5 7.813 7.813v0c-0.005 4.314-3.501 7.809-7.814 7.813h-0zM15.938 10.688c-2.933 0.003-5.31 2.379-5.314 5.312v0c0.004 2.933 2.381 5.309 5.313 5.312h0c2.932-0.004 5.308-2.38 5.312-5.312v-0c-0.004-2.932-2.38-5.308-5.312-5.312h-0zM24.625 5.686c-1.036 0-1.875 0.84-1.875 1.875s0.84 1.875 1.875 1.875v0c1.035 0 1.875-0.839 1.875-1.875s-0.839-1.875-1.875-1.875v0z"></path>
</symbol>
<symbol id="icon-location" viewBox="0 0 23 32">
<path d="M11.733 1.195c6.47 0 11.733 5.261 11.733 11.733 0 2.56-0.811 4.992-2.34 7.031l-8.67 11.678c-0.021 0.030-0.055 0.041-0.079 0.064-0.161 0.183-0.396 0.297-0.657 0.297-0.29 0-0.547-0.141-0.707-0.359l-0.002-0.002c-2.498-3.328-7.074-9.551-8.832-11.898l-0.004-0.006-0.011-0.013c-1.354-1.879-2.165-4.227-2.165-6.764 0-0.011 0-0.021 0-0.032v0.002c0-6.47 5.263-11.731 11.733-11.731zM11.733 19.255c3.491-0.010 6.319-2.837 6.33-6.326v-0.001c-0.008-3.493-2.837-6.322-6.329-6.332h-0.001c-3.492 0.010-6.32 2.838-6.33 6.329v0.001c0.010 3.492 2.838 6.32 6.329 6.33h0.001z"></path>
</symbol>
<symbol id="icon-menu" viewBox="0 0 60 32">
<path d="M2 0h56c1.105 0 2 0.895 2 2s-0.895 2-2 2h-56c-1.105 0-2-0.895-2-2s0.895-2 2-2z"></path>
<path d="M2 14h56c1.105 0 2 0.895 2 2s-0.895 2-2 2h-56c-1.105 0-2-0.895-2-2s0.895-2 2-2z"></path>
<path d="M2 28h56c1.105 0 2 0.895 2 2s-0.895 2-2 2h-56c-1.105 0-2-0.895-2-2s0.895-2 2-2z"></path>
</symbol>
<symbol id="icon-phone" viewBox="0 0 32 32">
<path d="M29.43 21.002c-0.010 0-0.022 0-0.033 0-2.028 0-3.979-0.332-5.801-0.946l0.128 0.037c-0.894-0.305-1.991-0.025-2.535 0.534l-3.599 2.718c-4.172-2.228-6.742-4.798-8.938-8.938l2.634-3.505c0.47-0.468 0.761-1.116 0.761-1.831 0-0.281-0.045-0.553-0.128-0.806l0.005 0.018c-0.577-1.697-0.911-3.652-0.911-5.685 0-0.011 0-0.022 0-0.033v0.002c-0.002-1.415-1.157-2.567-2.57-2.567h-5.876c-1.415 0-2.567 1.152-2.567 2.567 0 16.229 13.201 29.433 29.43 29.433 1.415 0 2.567-1.152 2.567-2.567v-5.858c0-1.418-1.152-2.57-2.567-2.57z"></path>
</symbol>
<symbol id="icon-twitter" viewBox="0 0 40 32">
<path d="M40.421 3.789c-1.39 0.607-3.002 1.055-4.689 1.265l-0.086 0.009c1.709-0.993 2.999-2.547 3.63-4.406l0.017-0.057c-1.514 0.891-3.276 1.57-5.148 1.938l-0.107 0.017c-1.53-1.577-3.669-2.555-6.036-2.555-0.007 0-0.014 0-0.021 0h0.001c-4.583 0-8.276 3.628-8.276 8.076 0 0.64 0.056 1.256 0.192 1.843-6.871-0.316-12.936-3.517-17.055-8.41l-0.029-0.036c-0.709 1.165-1.13 2.573-1.133 4.080v0.001c0 2.796 1.477 5.275 3.68 6.71-1.377-0.036-2.661-0.4-3.788-1.015l0.044 0.022v0.089c0 3.924 2.873 7.181 6.639 7.933-0.674 0.18-1.41 0.266-2.173 0.266-0.531 0-1.066-0.030-1.57-0.138 1.075 3.198 4.121 5.548 7.744 5.625-2.808 2.148-6.37 3.443-10.233 3.443-0.014 0-0.028-0-0.042-0h0.002c-0.68 0-1.332-0.029-1.984-0.109 3.673 2.307 8.024 3.623 12.714 3.623 15.249 0 23.586-12.308 23.586-22.976 0-0.357-0.013-0.702-0.030-1.044 1.638-1.149 3.016-2.539 4.118-4.136l0.036-0.055z"></path>
</symbol>
</defs>
</svg>
