<!-- Generated by IcoMoon.io -->
<svg version="1.1" xmlns="http://www.w3.org/2000/svg" width="32" height="32" viewBox="0 0 32 32">
<title>instagram</title>
<path d="M16.315 32h-0.318c-0.141 0.001-0.307 0.001-0.474 0.001-2.324 0-4.632-0.071-6.921-0.212l0.314 0.015c-2.067-0.126-3.953-0.84-5.455-2.065-1.448-1.182-2.439-2.781-2.942-4.749-0.438-1.716-0.46-3.399-0.483-5.027-0.017-1.167-0.032-2.552-0.035-3.96 0.003-1.415 0.020-2.799 0.035-3.966 0.024-1.629 0.045-3.311 0.483-5.027 0.504-1.971 1.492-3.567 2.942-4.749 1.502-1.224 3.389-1.939 5.457-2.065 1.977-0.125 4.287-0.196 6.614-0.196 0.166 0 0.331 0 0.497 0.001l-0.026-0c0.135-0.001 0.294-0.001 0.454-0.001 2.331 0 4.646 0.071 6.942 0.212l-0.315-0.015c2.067 0.126 3.953 0.84 5.455 2.065 1.448 1.182 2.439 2.779 2.942 4.749 0.438 1.716 0.46 3.399 0.483 5.027 0.017 1.167 0.034 2.552 0.035 3.96v0.007c-0.003 1.406-0.020 2.791-0.035 3.96-0.024 1.629-0.045 3.311-0.483 5.027-0.504 1.969-1.492 3.567-2.942 4.749-1.502 1.224-3.389 1.939-5.457 2.065-1.965 0.125-4.262 0.196-6.575 0.196-0.067 0-0.134-0-0.201-0h0.010zM15.997 29.499c0.141 0.001 0.308 0.001 0.475 0.001 2.273 0 4.529-0.069 6.768-0.206l-0.307 0.015c1.561-0.094 2.917-0.601 4.025-1.506 1.027-0.837 1.735-1.992 2.1-3.431 0.365-1.428 0.387-2.961 0.406-4.443 0.017-1.162 0.034-2.535 0.037-3.929-0.003-1.395-0.020-2.769-0.037-3.929-0.020-1.482-0.040-3.015-0.404-4.443-0.369-1.44-1.075-2.594-2.1-3.431-1.112-0.904-2.466-1.411-4.029-1.506-1.94-0.123-4.206-0.193-6.489-0.193-0.154 0-0.308 0-0.462 0.001l0.024-0c-0.135-0.001-0.294-0.001-0.453-0.001-2.28 0-4.544 0.070-6.789 0.208l0.308-0.015c-1.563 0.094-2.919 0.601-4.029 1.506-1.026 0.837-1.731 1.991-2.099 3.431-0.365 1.428-0.387 2.961-0.406 4.443-0.017 1.162-0.034 2.536-0.037 3.933 0.003 1.388 0.020 2.764 0.037 3.924 0.020 1.482 0.040 3.015 0.404 4.443 0.369 1.44 1.075 2.594 2.1 3.432 1.112 0.904 2.466 1.411 4.029 1.506 2.2 0.135 4.467 0.197 6.927 0.19zM15.938 23.813c-4.313-0.005-7.808-3.5-7.813-7.813v-0c0.005-4.313 3.5-7.808 7.813-7.813h0c4.313 0.005 7.808 3.5 7.813 7.813v0c-0.005 4.314-3.501 7.809-7.814 7.813h-0zM15.938 10.688c-2.933 0.003-5.31 2.379-5.314 5.312v0c0.004 2.933 2.381 5.309 5.313 5.312h0c2.932-0.004 5.308-2.38 5.312-5.312v-0c-0.004-2.932-2.38-5.308-5.312-5.312h-0zM24.625 5.686c-1.036 0-1.875 0.84-1.875 1.875s0.84 1.875 1.875 1.875v0c1.035 0 1.875-0.839 1.875-1.875s-0.839-1.875-1.875-1.875v0z"></path>
</svg>
