<svg width="26" height="24" viewBox="0 0 26 24" fill="none" xmlns="http://www.w3.org/2000/svg">
<path d="M8.88533 0C6.1267 0 3.87988 2.24682 3.87988 5.00545C3.87988 7.76407 6.1267 10.0109 8.88533 10.0109C11.644 10.0109 13.8908 7.76407 13.8908 5.00545C13.8908 2.24682 11.644 0 8.88533 0ZM8.88533 9.17153C6.58221 9.17153 4.71412 7.29833 4.71412 5.00033C4.71412 2.70233 6.58733 0.829123 8.88533 0.829123C11.1884 0.829123 13.0565 2.70233 13.0565 5.00033C13.0565 7.29833 11.1833 9.17153 8.88533 9.17153Z" fill="#674D40"/>
<path d="M19.1368 2.07812C17.064 2.07812 15.3801 3.76196 15.3801 5.83477C15.3801 7.90758 17.064 9.59141 19.1368 9.59141C21.2096 9.59141 22.8934 7.90758 22.8934 5.83477C22.8934 3.76196 21.2096 2.07812 19.1368 2.07812ZM19.1368 8.76229C17.5246 8.76229 16.2144 7.45207 16.2144 5.83989C16.2144 4.2277 17.5246 2.91748 19.1368 2.91748C20.749 2.91748 22.0592 4.2277 22.0592 5.83989C22.0592 7.45207 20.749 8.76229 19.1368 8.76229Z" fill="#674D40"/>
<path d="M25.8568 15.0985C25.478 12.8158 24.0603 10.8914 21.6446 9.88319C21.6446 9.88319 20.575 10.6918 19.1368 10.6663C17.5655 10.6355 16.6289 9.88319 16.6289 9.88319C16.6289 9.88319 15.462 10.3182 14.5203 11.2241C13.6502 10.4513 12.1814 9.82178 12.1814 9.82178C12.1814 9.82178 10.8353 10.8454 8.88022 10.83C6.82789 10.8147 5.58932 9.82178 5.58932 9.82178C5.58932 9.82178 1.15198 11.347 0.215373 16.5213C0.215373 16.5213 -0.787764 19.2646 1.53583 23.3641H16.24C16.24 23.3641 17.2841 21.5472 17.4683 20.4417H24.782C26.5784 17.7189 25.8568 15.0985 25.8568 15.0985ZM15.723 22.5299H2.05275C0.266554 19.1366 1.03938 16.6595 1.03938 16.6595C1.47441 14.0646 3.14289 11.8741 5.5279 10.7635C7.57512 11.9662 10.2007 11.9662 12.2479 10.7635C14.6329 11.8741 16.3014 14.0646 16.7364 16.6595C16.7313 16.6595 17.4734 19.7098 15.723 22.5299ZM24.2958 19.6075H17.6372C17.8931 18.1335 17.5553 16.5213 17.5553 16.5213C17.2533 14.6993 16.3935 13.0564 15.1345 11.7871C15.5644 11.3981 16.0404 11.0757 16.5624 10.8249C18.1336 11.7257 20.1348 11.7257 21.706 10.8249C23.4718 11.6694 24.7103 13.302 25.0328 15.2367C25.0328 15.2367 25.6418 17.3044 24.2958 19.6075Z" fill="#674D40"/>
</svg>
