<!-- Generated by IcoMoon.io -->
<svg version="1.1" xmlns="http://www.w3.org/2000/svg" width="40" height="32" viewBox="0 0 40 32">
<title>twitter</title>
<path d="M40.421 3.789c-1.39 0.607-3.002 1.055-4.689 1.265l-0.086 0.009c1.709-0.993 2.999-2.547 3.63-4.406l0.017-0.057c-1.514 0.891-3.276 1.57-5.148 1.938l-0.107 0.017c-1.53-1.577-3.669-2.555-6.036-2.555-0.007 0-0.014 0-0.021 0h0.001c-4.583 0-8.276 3.628-8.276 8.076 0 0.64 0.056 1.256 0.192 1.843-6.871-0.316-12.936-3.517-17.055-8.41l-0.029-0.036c-0.709 1.165-1.13 2.573-1.133 4.080v0.001c0 2.796 1.477 5.275 3.68 6.71-1.377-0.036-2.661-0.4-3.788-1.015l0.044 0.022v0.089c0 3.924 2.873 7.181 6.639 7.933-0.674 0.18-1.41 0.266-2.173 0.266-0.531 0-1.066-0.030-1.57-0.138 1.075 3.198 4.121 5.548 7.744 5.625-2.808 2.148-6.37 3.443-10.233 3.443-0.014 0-0.028-0-0.042-0h0.002c-0.68 0-1.332-0.029-1.984-0.109 3.673 2.307 8.024 3.623 12.714 3.623 15.249 0 23.586-12.308 23.586-22.976 0-0.357-0.013-0.702-0.030-1.044 1.638-1.149 3.016-2.539 4.118-4.136l0.036-0.055z"></path>
</svg>
